<svg id="svg" version="1.1" width="400" height="241.70212765957447" viewBox="0 0 400 241.70212765957447" xmlns="http://www.w3.org/2000/svg" xmlns:xlink="http://www.w3.org/1999/xlink" ><g id="svgg"><path id="path0" d="M247.037 37.844 C 246.904 37.905,245.653 38.067,244.256 38.204 C 240.336 38.587,238.637 38.889,234.220 39.988 C 230.145 41.002,228.461 41.507,223.942 43.069 C 221.914 43.770,219.079 44.884,217.466 45.614 C 216.764 45.931,216.137 46.191,216.073 46.191 C 215.940 46.191,214.683 46.756,211.366 48.307 C 203.624 51.928,198.492 52.614,191.294 50.990 C 190.695 50.855,189.797 50.688,189.297 50.619 C 188.798 50.550,188.329 50.396,188.255 50.277 C 188.182 50.158,187.905 50.060,187.641 50.060 C 187.377 50.060,186.105 49.673,184.814 49.200 C 182.222 48.249,177.137 46.343,175.816 45.826 C 175.351 45.644,174.534 45.363,174.002 45.201 C 173.470 45.040,172.692 44.761,172.273 44.582 C 171.854 44.403,171.289 44.256,171.018 44.256 C 170.746 44.256,170.464 44.160,170.391 44.041 C 170.318 43.923,169.904 43.773,169.470 43.708 C 169.037 43.643,168.029 43.401,167.231 43.169 C 165.525 42.675,164.128 42.337,163.120 42.176 C 162.721 42.112,162.013 41.962,161.548 41.842 C 154.148 39.934,142.573 40.033,135.369 42.066 C 134.870 42.206,134.108 42.416,133.676 42.532 C 133.244 42.648,132.563 42.881,132.164 43.050 C 130.994 43.546,129.327 44.274,128.416 44.687 C 127.301 45.193,124.953 46.670,124.744 46.998 C 124.556 47.291,123.960 47.031,121.942 45.775 C 121.241 45.339,120.561 44.982,120.431 44.982 C 120.300 44.982,120.193 44.886,120.193 44.768 C 120.193 44.651,120.003 44.489,119.770 44.409 C 119.289 44.243,117.761 43.347,117.442 43.043 C 117.102 42.718,115.237 45.249,114.722 46.735 C 114.641 46.968,114.479 47.158,114.361 47.158 C 114.244 47.158,114.148 47.376,114.148 47.642 C 114.148 47.908,114.048 48.126,113.926 48.126 C 113.667 48.126,112.455 50.221,112.455 50.670 C 112.455 50.838,112.319 51.028,112.152 51.092 C 111.703 51.265,110.677 53.297,110.987 53.400 C 111.129 53.448,111.245 53.598,111.245 53.734 C 111.245 53.870,111.073 53.915,110.861 53.834 C 110.364 53.643,109.529 54.631,109.702 55.206 C 109.783 55.474,109.716 55.610,109.525 55.568 C 109.114 55.479,108.956 56.279,109.357 56.414 C 109.531 56.472,109.429 56.479,109.129 56.429 C 108.782 56.372,108.585 56.461,108.585 56.677 C 108.585 56.863,108.412 57.158,108.201 57.334 C 107.850 57.625,107.851 57.678,108.215 57.945 C 108.484 58.141,108.527 58.291,108.347 58.401 C 108.200 58.492,107.922 58.435,107.728 58.274 C 107.439 58.034,107.376 58.073,107.376 58.495 C 107.376 58.777,107.267 59.008,107.134 59.008 C 106.398 59.008,108.960 61.158,109.739 61.193 C 109.836 61.197,110.184 61.424,110.512 61.697 L 111.108 62.194 110.306 63.805 C 109.353 65.718,109.281 65.890,108.514 68.077 C 107.495 70.986,106.653 74.492,106.645 75.866 C 106.641 76.371,106.526 77.273,106.387 77.872 C 106.127 79.000,106.385 83.812,106.934 88.029 C 107.081 89.160,107.291 90.955,107.401 92.019 C 107.511 93.083,107.693 94.828,107.804 95.896 C 107.916 96.965,108.078 97.952,108.164 98.091 C 108.249 98.229,108.443 99.205,108.594 100.260 C 108.745 101.314,108.964 102.775,109.082 103.507 C 109.199 104.238,109.390 105.435,109.507 106.167 C 109.625 106.898,109.839 107.987,109.983 108.585 C 110.128 109.184,110.476 110.871,110.756 112.334 C 111.314 115.242,112.339 120.235,112.693 121.765 C 112.816 122.297,113.201 123.984,113.549 125.514 C 113.897 127.044,114.272 128.622,114.383 129.021 C 114.975 131.146,114.833 132.342,114.078 131.587 C 113.930 131.439,113.663 131.318,113.484 131.318 C 112.984 131.318,107.018 128.455,103.748 126.647 C 103.017 126.242,102.201 125.791,101.935 125.644 C 98.729 123.879,95.215 121.601,91.913 119.150 C 88.036 116.272,87.881 116.062,88.604 114.669 C 90.290 111.421,90.309 107.913,88.658 104.493 C 87.594 102.289,84.643 99.266,84.643 100.379 C 84.643 100.521,84.371 100.994,84.039 101.430 C 83.706 101.865,83.434 102.348,83.434 102.502 C 83.434 102.655,83.325 102.781,83.192 102.781 C 83.059 102.781,82.950 102.893,82.950 103.030 C 82.950 103.167,82.297 104.315,81.499 105.582 C 80.701 106.849,80.048 107.933,80.048 107.991 C 80.048 108.049,79.559 108.861,78.960 109.794 C 78.362 110.728,77.872 111.562,77.872 111.648 C 77.872 111.734,77.600 112.161,77.267 112.597 C 76.935 113.033,76.663 113.449,76.663 113.522 C 76.663 113.595,76.309 114.231,75.877 114.935 C 72.762 120.008,72.809 119.784,74.719 120.455 C 76.250 120.993,79.652 121.087,81.428 120.639 C 82.429 120.387,82.571 120.406,82.867 120.821 C 83.379 121.540,86.042 124.463,87.908 126.353 C 95.443 133.986,105.228 140.902,116.370 146.471 L 119.197 147.883 119.725 149.577 C 120.630 152.478,120.840 153.171,121.154 154.293 C 121.752 156.424,122.190 157.805,122.399 158.219 C 122.516 158.450,122.612 158.860,122.612 159.129 C 122.612 159.399,122.707 159.809,122.824 160.040 C 122.940 160.271,123.333 161.439,123.696 162.636 C 124.059 163.833,124.508 165.170,124.693 165.607 C 124.879 166.044,125.030 166.608,125.030 166.862 C 125.030 167.116,125.139 167.391,125.272 167.473 C 125.405 167.555,125.514 167.870,125.514 168.172 C 125.514 168.475,125.580 168.788,125.661 168.869 C 125.741 168.950,126.438 170.845,127.210 173.081 C 128.763 177.585,129.983 180.972,130.351 181.802 C 130.600 182.363,130.724 182.673,131.439 184.522 C 132.160 186.389,132.226 186.553,132.640 187.545 C 132.862 188.077,133.134 188.730,133.245 188.996 C 133.356 189.262,133.675 189.996,133.954 190.626 C 134.233 191.256,134.462 191.821,134.462 191.881 C 134.462 191.942,134.908 192.949,135.454 194.121 C 136.000 195.293,136.824 197.068,137.286 198.065 C 140.729 205.501,144.476 211.865,148.505 217.119 C 149.775 218.774,154.009 222.975,154.409 222.975 C 154.578 222.975,154.846 223.130,155.003 223.319 C 155.630 224.075,158.509 225.205,160.764 225.580 C 169.326 227.003,175.724 220.809,179.441 207.497 C 179.608 206.898,179.885 205.919,180.057 205.320 C 180.229 204.722,180.439 203.906,180.524 203.507 C 180.957 201.477,181.131 200.707,181.506 199.154 C 181.890 197.561,182.042 196.817,182.557 194.015 C 182.781 192.796,183.218 190.761,183.556 189.359 C 183.669 188.894,183.896 187.860,184.062 187.062 C 184.331 185.764,185.450 181.227,185.970 179.323 C 187.941 172.110,191.832 165.866,195.547 163.955 C 200.703 161.304,205.999 166.398,209.258 177.146 C 209.606 178.293,211.659 183.434,212.098 184.257 C 212.212 184.470,212.700 185.514,213.185 186.578 C 214.541 189.558,219.078 198.699,220.018 200.344 C 220.480 201.153,221.135 202.303,221.473 202.900 C 221.811 203.498,222.451 204.554,222.894 205.246 C 223.337 205.939,223.700 206.611,223.700 206.740 C 223.700 206.868,223.782 207.009,223.881 207.054 C 223.981 207.098,224.595 207.950,225.246 208.948 C 226.697 211.171,229.270 214.786,229.635 215.115 C 229.783 215.248,230.438 215.997,231.091 216.779 C 232.532 218.506,234.094 220.072,235.550 221.249 C 236.149 221.732,236.693 222.197,236.759 222.282 C 236.889 222.447,237.979 223.115,239.541 223.985 C 244.810 226.921,252.194 225.086,254.796 220.193 C 255.457 218.953,255.996 218.006,256.106 217.896 C 256.774 217.228,261.859 206.714,263.474 202.660 C 263.978 201.397,264.523 200.036,264.687 199.637 C 264.850 199.238,265.228 198.259,265.526 197.461 C 265.825 196.663,266.158 195.792,266.268 195.526 C 266.377 195.260,266.756 194.226,267.110 193.229 C 267.464 192.231,267.846 191.197,267.959 190.931 C 268.072 190.665,268.459 189.522,268.819 188.392 C 269.179 187.261,269.558 186.119,269.662 185.852 C 269.765 185.586,270.036 184.770,270.263 184.039 C 270.489 183.307,270.771 182.520,270.888 182.289 C 271.005 182.058,271.101 181.677,271.101 181.442 C 271.102 181.208,271.372 180.254,271.701 179.323 C 272.030 178.392,272.302 177.403,272.304 177.126 C 272.307 176.849,272.386 176.546,272.479 176.453 C 272.630 176.302,273.452 173.477,274.000 171.221 C 274.114 170.756,274.605 168.851,275.092 166.989 C 275.579 165.127,276.072 163.168,276.187 162.636 C 276.302 162.104,276.620 160.808,276.892 159.756 C 277.165 158.704,277.388 157.610,277.388 157.325 C 277.388 157.041,277.486 156.704,277.605 156.578 C 277.725 156.452,277.874 155.913,277.938 155.381 C 278.110 153.935,278.622 151.568,278.866 151.092 C 278.984 150.861,279.081 150.235,279.081 149.701 C 279.081 148.424,279.682 147.838,281.180 147.656 C 281.821 147.577,282.836 147.415,283.434 147.294 C 284.033 147.173,285.502 146.894,286.699 146.673 C 287.896 146.452,289.064 146.172,289.295 146.050 C 289.526 145.928,290.091 145.828,290.551 145.828 C 291.010 145.828,291.446 145.731,291.519 145.613 C 291.592 145.495,292.007 145.345,292.440 145.281 C 292.874 145.216,293.555 145.048,293.954 144.906 C 294.353 144.765,295.169 144.519,295.768 144.361 C 297.276 143.962,298.952 143.409,299.453 143.147 C 299.684 143.025,300.070 142.926,300.311 142.926 C 300.552 142.926,300.853 142.840,300.979 142.734 C 301.106 142.628,301.644 142.398,302.177 142.222 C 302.709 142.047,303.525 141.741,303.990 141.544 C 304.456 141.346,305.054 141.097,305.320 140.992 C 309.192 139.450,314.389 136.741,314.389 136.264 C 314.389 136.013,316.484 135.592,319.293 135.276 C 320.062 135.190,320.749 135.026,320.819 134.911 C 320.890 134.797,321.240 134.702,321.598 134.700 C 324.687 134.684,332.208 129.464,333.229 126.629 C 333.282 126.481,333.405 126.306,333.503 126.239 C 333.800 126.037,334.946 123.517,334.946 123.065 C 334.946 122.831,335.054 122.573,335.187 122.491 C 335.320 122.409,335.429 122.069,335.429 121.735 C 335.429 121.402,335.557 120.891,335.712 120.601 C 336.374 119.365,336.930 109.944,336.399 108.953 C 335.887 107.996,336.299 91.667,336.869 90.326 C 336.983 90.060,337.377 89.081,337.746 88.150 C 338.115 87.219,338.670 86.111,338.979 85.687 C 339.288 85.264,339.541 84.818,339.541 84.697 C 339.541 84.003,342.697 81.369,344.498 80.560 C 344.897 80.380,345.387 80.155,345.586 80.059 C 345.786 79.963,346.602 79.692,347.400 79.457 C 348.198 79.223,349.003 78.985,349.189 78.929 C 349.591 78.808,349.428 74.854,348.987 74.029 C 348.714 73.520,346.518 73.523,345.961 74.034 C 345.835 74.149,345.471 74.244,345.152 74.244 C 344.834 74.244,344.284 74.395,343.931 74.579 C 343.578 74.764,342.745 75.171,342.080 75.484 C 338.477 77.183,334.935 80.792,333.328 84.401 C 333.180 84.734,332.832 85.518,332.555 86.145 C 330.763 90.190,330.031 98.155,330.814 105.079 C 332.352 118.676,330.262 124.677,322.733 128.280 C 320.864 129.174,320.468 129.324,319.589 129.473 C 319.190 129.540,318.397 129.697,317.826 129.821 C 317.256 129.946,316.297 129.992,315.696 129.924 L 314.603 129.801 314.743 126.630 C 314.819 124.885,314.939 122.570,315.009 121.484 C 315.164 119.090,314.950 118.872,313.749 120.201 C 311.973 122.167,311.177 124.369,311.011 127.777 L 310.883 130.404 308.827 131.071 C 304.334 132.530,299.990 133.528,294.680 134.321 C 293.349 134.519,291.880 134.741,291.415 134.813 C 290.949 134.885,289.154 135.051,287.424 135.183 C 285.695 135.314,283.764 135.492,283.132 135.578 L 281.983 135.734 281.983 134.512 C 281.983 133.840,282.089 132.764,282.218 132.122 C 282.837 129.053,284.064 120.022,284.627 114.389 C 284.754 113.126,284.921 111.657,285.000 111.125 C 285.843 105.408,286.645 90.360,286.624 80.653 C 286.606 72.016,286.271 66.805,285.629 65.175 C 285.524 64.909,285.033 63.452,284.537 61.937 C 281.864 53.771,276.929 46.829,271.363 43.410 C 271.147 43.277,270.645 42.938,270.249 42.657 C 267.599 40.777,261.779 38.790,257.195 38.200 C 255.257 37.951,247.401 37.675,247.037 37.844 M330.759 58.686 C 328.564 59.060,328.099 59.967,327.782 64.501 L 327.626 66.728 329.895 66.798 C 334.230 66.932,338.389 66.747,338.138 66.431 C 337.909 66.143,337.696 65.257,337.446 63.541 C 337.373 63.042,337.216 62.573,337.097 62.499 C 336.978 62.426,336.880 62.000,336.880 61.553 C 336.880 59.278,334.319 58.078,330.759 58.686 M118.501 59.371 C 118.501 59.571,118.392 59.734,118.259 59.734 C 118.126 59.734,118.017 59.571,118.017 59.371 C 118.017 59.172,118.126 59.008,118.259 59.008 C 118.392 59.008,118.501 59.172,118.501 59.371 M117.775 60.503 C 117.775 60.610,117.563 60.515,117.304 60.293 C 117.045 60.071,116.898 59.784,116.978 59.654 C 117.121 59.423,117.775 60.121,117.775 60.503 M116.661 62.496 C 116.492 62.937,115.899 63.169,115.713 62.867 C 115.634 62.740,115.740 62.636,115.947 62.636 C 116.154 62.636,116.324 62.527,116.324 62.394 C 116.324 62.261,116.429 62.152,116.558 62.152 C 116.687 62.152,116.733 62.307,116.661 62.496 M76.542 98.175 C 69.998 98.957,64.965 107.139,67.367 113.090 C 68.082 114.863,68.463 115.599,68.666 115.599 C 68.842 115.599,70.859 112.593,70.859 112.330 C 70.859 112.277,71.620 111.027,72.551 109.553 C 73.482 108.078,74.244 106.828,74.244 106.774 C 74.244 106.720,74.897 105.639,75.695 104.373 C 76.493 103.106,77.146 101.958,77.146 101.821 C 77.146 101.684,77.255 101.572,77.388 101.572 C 77.521 101.572,77.630 101.458,77.630 101.318 C 77.630 101.179,78.017 100.460,78.490 99.720 C 78.963 98.980,79.317 98.342,79.276 98.300 C 79.054 98.079,77.821 98.022,76.542 98.175 M164.241 98.973 C 174.009 104.142,169.369 120.785,159.097 117.425 C 155.586 116.276,152.277 110.297,153.287 106.926 C 153.441 106.411,153.567 105.745,153.567 105.447 C 153.567 103.858,157.214 99.154,158.446 99.154 C 158.673 99.154,158.926 99.045,159.008 98.912 C 159.227 98.559,163.554 98.609,164.241 98.973 M231.507 98.996 C 232.010 99.171,232.549 99.441,232.704 99.597 C 232.860 99.752,233.113 99.879,233.268 99.879 C 233.761 99.879,235.765 102.225,236.303 103.432 C 236.589 104.071,236.917 104.784,237.033 105.015 C 237.313 105.575,237.303 111.138,237.021 111.672 C 236.899 111.903,236.582 112.587,236.317 113.191 C 234.522 117.291,230.041 119.132,226.145 117.371 C 225.081 116.890,222.249 114.005,222.249 113.402 C 222.249 113.163,222.140 112.900,222.007 112.817 C 221.874 112.735,221.765 112.473,221.765 112.236 C 221.765 111.998,221.594 111.461,221.385 111.042 C 220.717 109.701,221.068 105.881,222.040 103.933 C 222.155 103.702,222.249 103.404,222.249 103.271 C 222.249 102.802,224.589 100.149,225.263 99.854 C 225.534 99.736,225.919 99.546,226.119 99.434 C 226.318 99.322,226.699 99.110,226.965 98.964 C 227.639 98.594,230.408 98.613,231.507 98.996 M212.577 120.074 C 212.881 120.440,212.859 121.085,212.360 126.360 C 212.192 128.144,211.912 129.551,211.345 131.456 C 211.224 131.865,211.125 132.430,211.125 132.711 C 211.125 132.993,211.016 133.291,210.883 133.374 C 210.750 133.456,210.641 133.694,210.641 133.902 C 210.641 134.898,208.378 138.853,206.541 141.067 C 203.668 144.532,193.904 146.307,191.185 143.859 C 191.059 143.745,190.759 143.652,190.520 143.652 C 190.281 143.652,190.085 143.569,190.085 143.469 C 190.085 143.368,189.775 143.149,189.396 142.982 C 188.545 142.605,185.838 139.890,185.073 138.647 C 184.501 137.718,184.106 136.904,183.422 135.248 C 183.216 134.749,182.944 134.152,182.818 133.921 C 182.691 133.690,182.588 133.234,182.588 132.908 C 182.588 132.581,182.479 132.247,182.346 132.164 C 182.213 132.082,182.104 131.608,182.104 131.110 C 182.104 130.613,181.978 130.079,181.823 129.925 C 181.472 129.573,181.144 126.794,180.981 122.793 L 180.856 119.710 196.565 119.710 C 210.266 119.710,212.313 119.756,212.577 120.074 " stroke="none" fill="#fafaf3" fill-rule="evenodd"></path><path id="path1" d="M0.000 120.919 L 0.000 241.838 200.000 241.838 L 400.000 241.838 400.000 120.919 L 400.000 0.000 200.000 0.000 L 0.000 0.000 0.000 120.919 M64.208 28.580 C 68.382 29.602,72.688 34.117,73.645 38.476 C 73.742 38.920,73.904 39.450,74.003 39.653 C 74.351 40.364,74.728 41.755,74.731 42.339 C 74.732 42.662,74.896 43.525,75.095 44.256 C 75.530 45.859,75.611 56.155,75.205 58.283 C 74.663 61.122,74.203 63.272,73.987 63.983 C 73.862 64.392,73.761 64.932,73.761 65.184 C 73.761 65.437,73.609 66.082,73.423 66.618 C 73.237 67.155,72.949 68.083,72.784 68.682 C 72.429 69.962,70.286 75.416,69.625 76.723 C 69.372 77.222,68.930 78.093,68.642 78.658 C 68.354 79.223,67.809 80.084,67.430 80.570 L 66.742 81.455 65.233 81.110 C 62.266 80.431,56.616 78.516,53.567 77.155 C 41.796 71.902,34.700 67.028,29.898 60.898 C 28.993 59.742,27.872 57.684,27.026 55.623 C 24.907 50.461,26.944 42.999,31.411 39.562 C 36.457 35.679,41.934 36.726,47.629 42.662 C 48.793 43.875,48.851 43.810,48.851 41.294 C 48.851 31.787,55.346 26.410,64.208 28.580 M256.590 37.724 C 260.584 38.336,262.786 38.814,264.410 39.423 C 264.831 39.581,265.393 39.789,265.659 39.885 C 270.001 41.454,276.054 45.994,278.742 49.698 C 279.128 50.229,279.607 50.848,279.807 51.072 C 280.006 51.296,280.385 51.894,280.649 52.402 C 280.913 52.910,281.485 53.891,281.919 54.583 C 282.353 55.275,282.709 55.935,282.709 56.049 C 282.709 56.164,282.912 56.686,283.160 57.210 C 284.160 59.316,285.330 62.464,285.537 63.603 C 285.598 63.936,285.740 64.426,285.852 64.692 C 285.965 64.958,286.125 65.502,286.207 65.901 C 286.290 66.300,286.450 67.062,286.563 67.594 C 286.915 69.243,287.383 80.774,287.221 83.814 C 287.137 85.401,286.961 89.561,286.830 93.058 C 286.700 96.556,286.516 99.542,286.422 99.695 C 286.327 99.847,286.160 101.502,286.049 103.372 C 285.767 108.130,285.479 111.344,285.007 114.994 C 284.783 116.723,284.506 119.008,284.391 120.073 C 283.874 124.851,283.708 126.144,283.566 126.501 C 283.482 126.712,283.305 127.692,283.173 128.678 C 282.717 132.093,282.486 133.619,282.324 134.300 L 282.161 134.985 285.276 134.870 C 288.647 134.745,291.141 134.479,294.921 133.841 C 296.252 133.617,297.830 133.387,298.428 133.330 C 299.027 133.274,299.734 133.138,300.000 133.029 C 300.266 132.920,301.354 132.642,302.418 132.411 C 303.482 132.180,304.571 131.902,304.837 131.793 C 305.103 131.685,305.593 131.541,305.925 131.474 C 307.175 131.221,309.459 130.506,310.278 130.111 C 310.561 129.975,310.656 129.356,310.710 127.305 C 310.748 125.858,310.884 124.569,311.012 124.441 C 311.141 124.313,311.245 124.050,311.245 123.857 C 311.245 123.059,312.654 120.710,313.877 119.468 L 315.187 118.138 315.385 113.785 C 315.493 111.391,315.641 108.615,315.714 107.618 C 315.837 105.921,316.104 101.331,316.580 92.745 C 316.690 90.750,316.896 86.614,317.037 83.555 C 317.179 80.496,317.338 77.285,317.391 76.421 C 317.445 75.556,317.565 73.084,317.659 70.926 C 317.865 66.186,317.671 66.430,320.953 66.761 C 322.342 66.900,324.177 66.982,325.031 66.942 L 326.584 66.868 326.786 66.022 C 326.898 65.556,327.071 64.011,327.170 62.588 C 327.371 59.734,327.515 59.436,329.066 58.679 C 329.573 58.432,330.177 58.133,330.408 58.014 C 330.984 57.720,334.640 57.742,334.825 58.041 C 334.907 58.174,335.171 58.283,335.411 58.283 C 336.086 58.283,337.052 59.167,337.190 59.911 C 337.258 60.279,337.549 61.451,337.837 62.515 C 338.125 63.579,338.478 64.915,338.621 65.484 C 338.764 66.053,338.959 66.566,339.054 66.625 C 339.203 66.717,343.671 66.302,346.675 65.917 C 348.334 65.704,348.315 65.662,348.953 70.915 C 349.078 71.943,349.252 72.901,349.340 73.043 C 349.428 73.185,349.606 74.248,349.737 75.405 C 349.989 77.647,350.305 80.040,350.555 81.620 C 350.640 82.152,350.925 84.166,351.190 86.094 C 351.652 89.460,351.792 90.541,352.342 94.997 C 352.478 96.102,352.662 97.125,352.751 97.268 C 352.840 97.412,353.009 98.357,353.128 99.369 C 353.246 100.381,353.445 102.080,353.569 103.144 C 353.693 104.208,353.964 106.112,354.171 107.376 C 354.520 109.503,354.695 110.641,355.267 114.510 C 355.386 115.308,355.597 116.886,355.736 118.017 C 356.095 120.919,356.927 126.619,357.202 128.053 C 357.330 128.718,357.547 130.242,357.684 131.439 C 357.821 132.636,358.044 134.377,358.178 135.308 C 358.587 138.142,358.877 140.186,359.111 141.898 C 359.930 147.889,360.001 148.136,360.834 147.878 C 361.209 147.761,361.388 148.334,362.288 152.528 C 362.653 154.232,362.651 154.233,359.556 154.257 C 356.896 154.278,353.714 154.422,350.302 154.677 C 347.138 154.914,345.713 154.991,339.661 155.256 C 336.336 155.401,331.548 155.623,329.021 155.750 C 319.072 156.247,312.159 156.496,312.024 156.361 C 311.644 155.981,312.366 150.669,312.872 150.126 C 313.582 149.362,313.672 148.596,313.737 142.745 C 313.796 137.446,313.702 136.951,312.805 137.831 C 312.482 138.149,306.740 140.992,306.422 140.992 C 306.278 140.992,305.971 141.091,305.740 141.213 C 305.509 141.335,304.885 141.612,304.353 141.829 C 303.821 142.046,303.197 142.328,302.966 142.454 C 302.735 142.581,302.348 142.684,302.107 142.684 C 301.866 142.684,301.565 142.775,301.439 142.886 C 301.313 142.997,300.230 143.389,299.033 143.758 C 297.836 144.127,296.667 144.526,296.436 144.645 C 296.205 144.764,295.710 144.861,295.336 144.861 C 294.962 144.861,294.552 144.964,294.426 145.089 C 294.206 145.307,293.149 145.616,291.052 146.077 C 290.520 146.194,288.833 146.573,287.304 146.919 C 285.774 147.265,283.869 147.651,283.071 147.777 C 280.318 148.213,280.036 148.301,279.753 148.819 C 279.485 149.311,279.402 149.694,278.871 152.888 C 278.746 153.646,278.572 154.381,278.484 154.521 C 278.397 154.662,278.218 155.349,278.087 156.047 C 277.955 156.745,277.754 157.805,277.640 158.404 C 277.526 159.002,277.252 160.145,277.032 160.943 C 276.812 161.741,276.536 162.830,276.419 163.362 C 276.068 164.952,275.773 166.176,275.341 167.836 C 275.116 168.700,274.878 169.680,274.812 170.012 C 274.746 170.345,274.599 170.834,274.486 171.100 C 274.373 171.366,274.229 171.856,274.165 172.189 C 274.102 172.521,273.873 173.392,273.656 174.123 C 273.439 174.855,273.059 176.215,272.813 177.146 C 272.567 178.077,272.180 179.329,271.955 179.927 C 271.729 180.526,271.491 181.288,271.425 181.620 C 271.359 181.953,271.216 182.443,271.106 182.709 C 270.997 182.975,270.719 183.845,270.489 184.643 C 270.259 185.441,269.976 186.198,269.860 186.324 C 269.744 186.450,269.649 186.837,269.649 187.183 C 269.649 187.528,269.563 187.915,269.457 188.041 C 269.351 188.167,269.060 188.924,268.810 189.722 C 268.559 190.520,268.265 191.276,268.156 191.403 C 268.046 191.529,267.956 191.821,267.956 192.052 C 267.956 192.436,267.006 194.949,266.484 195.946 C 266.363 196.177,266.264 196.523,266.264 196.716 C 266.264 196.909,265.980 197.753,265.633 198.593 C 265.286 199.434,264.916 200.339,264.811 200.605 C 264.588 201.169,264.105 202.297,263.361 203.990 C 263.069 204.655,262.741 205.417,262.632 205.683 C 261.600 208.207,257.915 215.746,256.959 217.291 C 256.547 217.956,255.999 218.909,255.740 219.407 C 255.482 219.906,255.187 220.314,255.084 220.314 C 254.981 220.314,254.897 220.480,254.897 220.684 C 254.897 222.381,248.373 226.119,245.409 226.119 C 241.125 226.119,234.753 222.105,230.471 216.709 C 230.006 216.122,229.274 215.252,228.845 214.774 C 228.416 214.296,228.062 213.832,228.059 213.742 C 228.056 213.651,227.913 213.434,227.741 213.258 C 226.817 212.314,222.249 205.297,222.249 204.822 C 222.249 204.697,222.167 204.595,222.068 204.594 C 221.968 204.594,221.564 203.968,221.170 203.204 C 220.776 202.439,220.392 201.759,220.318 201.693 C 219.790 201.223,213.785 189.036,213.785 188.435 C 213.785 188.278,213.697 188.150,213.589 188.150 C 213.482 188.150,213.201 187.687,212.965 187.122 C 212.728 186.557,212.163 185.330,211.709 184.395 C 211.254 183.460,210.883 182.508,210.883 182.279 C 210.883 182.050,210.774 181.862,210.641 181.862 C 210.508 181.862,210.398 181.726,210.397 181.560 C 210.396 181.394,210.127 180.713,209.800 180.048 C 209.473 179.383,209.202 178.601,209.197 178.309 C 209.193 178.018,209.096 177.721,208.981 177.650 C 208.866 177.579,208.711 177.151,208.638 176.698 C 208.564 176.246,208.278 175.407,208.001 174.833 C 207.724 174.260,207.497 173.539,207.497 173.231 C 207.497 172.924,207.388 172.672,207.255 172.672 C 207.122 172.672,207.013 172.538,207.013 172.374 C 207.013 172.079,205.804 169.521,205.554 169.287 C 205.483 169.220,205.078 168.622,204.654 167.956 C 200.661 161.700,195.353 162.337,190.587 169.644 C 189.396 171.468,187.908 174.371,187.908 174.869 C 187.908 174.995,187.809 175.286,187.688 175.517 C 187.567 175.748,187.173 176.917,186.812 178.114 C 186.450 179.311,186.072 180.562,185.970 180.895 C 185.868 181.227,185.491 182.805,185.132 184.401 C 184.773 185.998,184.389 187.684,184.277 188.150 C 184.166 188.615,183.946 189.649,183.788 190.447 C 183.630 191.245,183.350 192.459,183.165 193.145 C 182.981 193.830,182.830 194.639,182.830 194.941 C 182.830 195.244,182.727 195.826,182.603 196.234 C 182.315 197.177,181.406 200.989,181.128 202.418 C 180.497 205.666,179.953 207.758,179.652 208.089 C 179.538 208.216,179.442 208.542,179.440 208.815 C 179.436 209.408,178.878 211.058,178.225 212.411 C 177.964 212.951,177.751 213.482,177.751 213.591 C 177.751 213.965,175.970 217.530,175.408 218.282 C 175.101 218.693,174.849 219.131,174.849 219.254 C 174.849 219.555,173.050 221.645,171.705 222.908 C 167.494 226.861,160.312 227.239,154.929 223.791 C 153.417 222.822,148.005 217.637,148.005 217.157 C 148.005 217.021,146.359 214.828,145.346 213.614 C 145.212 213.453,145.103 213.263,145.103 213.191 C 145.103 213.119,144.722 212.530,144.256 211.882 C 143.791 211.234,143.410 210.633,143.410 210.546 C 143.410 210.460,143.146 209.983,142.823 209.487 C 142.041 208.285,140.985 206.369,139.728 203.869 C 139.159 202.739,138.640 201.759,138.573 201.693 C 138.403 201.523,135.899 196.272,135.113 194.438 C 134.914 193.972,134.512 193.047,134.219 192.382 C 133.927 191.717,133.579 190.901,133.445 190.568 C 133.048 189.581,132.489 188.300,132.259 187.851 C 132.140 187.620,132.044 187.287,132.044 187.110 C 132.044 186.934,131.771 186.225,131.439 185.536 C 131.106 184.847,130.834 184.172,130.834 184.037 C 130.834 183.901,130.734 183.601,130.612 183.370 C 130.179 182.551,129.451 180.755,129.021 179.444 C 128.781 178.712,128.450 177.787,128.286 177.388 C 128.122 176.989,127.844 176.227,127.669 175.695 C 127.493 175.163,127.263 174.625,127.157 174.498 C 127.052 174.372,126.965 174.040,126.965 173.761 C 126.965 173.481,126.878 173.149,126.773 173.023 C 126.667 172.897,126.384 172.140,126.144 171.342 C 125.904 170.544,125.610 169.702,125.490 169.471 C 125.370 169.240,125.272 168.899,125.272 168.713 C 125.272 168.527,125.109 168.063,124.911 167.682 C 124.712 167.301,124.549 166.751,124.548 166.459 C 124.547 166.168,124.438 165.862,124.305 165.780 C 124.172 165.698,124.063 165.310,124.063 164.919 C 124.063 164.528,123.954 164.208,123.821 164.208 C 123.688 164.208,123.579 164.036,123.579 163.825 C 123.579 163.615,123.321 162.663,123.004 161.709 C 122.688 160.756,122.185 159.160,121.886 158.162 C 121.588 157.164,121.209 155.913,121.045 155.381 C 120.881 154.849,120.604 153.924,120.430 153.325 C 119.524 150.213,118.752 148.114,118.462 147.976 C 115.388 146.511,111.202 144.346,111.004 144.118 C 110.937 144.042,110.719 143.901,110.520 143.806 C 110.320 143.711,109.940 143.501,109.674 143.340 C 109.407 143.179,108.185 142.469,106.958 141.762 C 104.948 140.605,99.778 137.112,98.156 135.816 C 97.807 135.537,97.214 135.091,96.839 134.825 C 96.213 134.381,93.147 131.868,92.866 131.568 C 92.799 131.497,91.823 130.623,90.696 129.625 C 88.682 127.842,85.875 124.998,84.015 122.854 C 82.594 121.215,82.208 120.917,81.648 121.026 C 81.367 121.081,80.462 121.256,79.637 121.415 C 78.812 121.575,77.942 121.621,77.702 121.518 C 77.463 121.415,76.723 121.251,76.058 121.154 C 75.393 121.058,74.492 120.831,74.057 120.651 C 73.185 120.292,72.659 120.475,72.205 121.298 C 72.063 121.555,71.880 121.820,71.798 121.886 C 71.672 121.988,69.988 124.729,66.773 130.066 C 66.426 130.641,66.032 131.294,65.898 131.517 C 65.542 132.106,64.249 134.263,63.966 134.738 C 60.243 141.002,59.781 141.490,57.923 141.121 C 55.503 140.639,55.038 138.652,56.711 135.939 C 57.310 134.969,57.799 134.137,57.799 134.091 C 57.799 134.045,58.452 132.960,59.250 131.681 C 60.048 130.401,60.701 129.311,60.701 129.258 C 60.701 129.205,61.442 127.987,62.347 126.552 C 63.252 125.116,64.065 123.779,64.153 123.579 C 64.241 123.380,64.970 122.183,65.773 120.919 C 66.576 119.655,67.335 118.404,67.460 118.138 C 67.584 117.872,67.910 117.328,68.183 116.929 C 68.578 116.352,68.616 116.154,68.369 115.961 C 67.433 115.233,66.422 111.826,66.433 109.432 C 66.450 105.271,69.077 100.800,72.452 99.185 C 73.105 98.873,73.834 98.516,74.073 98.393 C 74.843 97.996,76.989 97.605,78.467 97.593 L 79.908 97.582 82.633 93.108 C 84.132 90.647,85.508 88.362,85.691 88.029 C 85.957 87.545,87.889 84.381,90.036 80.909 C 90.196 80.651,90.680 79.867,91.112 79.167 C 91.545 78.468,91.898 77.794,91.898 77.671 C 91.898 77.548,92.066 77.309,92.270 77.139 C 92.474 76.969,93.046 76.132,93.540 75.278 C 94.729 73.222,94.658 73.340,96.712 70.011 C 100.582 63.740,101.572 62.112,101.572 62.016 C 101.572 61.961,102.062 61.151,102.660 60.218 C 103.259 59.284,103.748 58.471,103.748 58.412 C 103.748 58.352,104.510 57.097,105.441 55.623 C 106.372 54.148,107.134 52.890,107.134 52.827 C 107.134 52.764,107.824 51.599,108.667 50.238 C 111.690 45.359,113.306 42.689,113.612 42.072 C 115.037 39.194,117.533 38.826,117.533 41.494 C 117.533 42.411,117.624 42.615,118.138 42.849 C 118.470 43.001,118.742 43.216,118.742 43.328 C 118.742 43.439,118.868 43.531,119.022 43.531 C 119.176 43.531,119.638 43.777,120.050 44.077 C 120.461 44.378,121.288 44.884,121.886 45.201 C 122.485 45.519,123.146 45.926,123.356 46.106 C 123.909 46.579,124.431 46.512,125.514 45.828 C 126.041 45.496,126.574 45.224,126.698 45.224 C 126.823 45.224,126.961 45.142,127.005 45.042 C 127.082 44.869,127.396 44.709,129.867 43.583 C 132.483 42.391,136.463 41.201,139.903 40.583 C 142.107 40.187,153.076 40.045,155.381 40.383 C 159.377 40.969,161.933 41.396,162.636 41.595 C 163.035 41.708,163.960 41.928,164.692 42.084 C 166.492 42.467,168.590 43.053,169.102 43.315 C 169.333 43.434,169.742 43.531,170.012 43.531 C 170.282 43.531,170.691 43.628,170.922 43.748 C 171.153 43.867,172.757 44.422,174.486 44.982 C 176.215 45.542,177.733 46.097,177.860 46.217 C 177.986 46.336,178.287 46.433,178.528 46.433 C 178.769 46.433,179.156 46.535,179.387 46.660 C 179.618 46.784,180.623 47.174,181.620 47.526 C 182.618 47.877,183.652 48.256,183.918 48.368 C 184.184 48.480,184.946 48.755,185.611 48.979 C 186.276 49.203,187.037 49.471,187.304 49.575 C 190.229 50.716,196.975 51.607,200.118 51.268 C 202.560 51.004,205.805 50.335,206.155 50.023 C 206.281 49.911,206.560 49.819,206.775 49.819 C 206.989 49.819,207.702 49.562,208.359 49.247 C 210.241 48.347,213.375 46.897,213.906 46.681 C 214.172 46.573,215.042 46.187,215.840 45.823 C 216.638 45.459,217.509 45.078,217.775 44.977 C 218.041 44.875,218.946 44.508,219.786 44.161 C 220.626 43.815,221.524 43.531,221.781 43.531 C 222.039 43.531,222.249 43.422,222.249 43.289 C 222.249 43.156,222.440 43.046,222.672 43.046 C 222.905 43.045,223.368 42.905,223.700 42.736 C 224.033 42.566,224.794 42.280,225.393 42.100 C 225.992 41.920,227.297 41.511,228.295 41.192 C 231.432 40.187,231.583 40.145,232.107 40.145 C 232.389 40.145,232.687 40.036,232.769 39.903 C 232.851 39.770,233.246 39.661,233.646 39.661 C 234.046 39.661,234.569 39.556,234.809 39.428 C 235.489 39.064,239.480 38.361,243.047 37.977 C 244.178 37.855,245.538 37.651,246.070 37.524 C 247.761 37.118,253.328 37.224,256.590 37.724 M106.167 60.501 C 106.167 60.657,106.015 60.956,105.829 61.166 C 105.643 61.376,105.243 61.983,104.941 62.515 C 103.742 64.626,103.350 65.275,102.479 66.594 C 101.980 67.348,101.572 68.016,101.572 68.077 C 101.572 68.139,101.191 68.784,100.726 69.512 C 100.260 70.240,99.879 70.896,99.879 70.970 C 99.879 71.044,99.293 72.013,98.577 73.124 C 96.493 76.354,96.355 76.728,96.855 77.783 C 97.404 78.940,97.228 79.889,96.152 81.571 C 95.675 82.317,95.284 83.041,95.284 83.181 C 95.284 83.320,95.197 83.434,95.091 83.434 C 94.984 83.434,94.658 83.897,94.366 84.462 C 93.665 85.820,92.988 86.985,92.681 87.361 C 92.544 87.529,92.136 88.210,91.772 88.875 C 91.409 89.541,90.908 90.309,90.659 90.584 C 90.409 90.859,90.206 91.156,90.206 91.245 C 90.206 91.335,89.863 91.980,89.445 92.681 C 88.622 94.059,88.430 94.368,86.471 97.461 L 85.169 99.516 86.303 100.605 C 90.165 104.309,91.503 109.902,89.483 113.904 C 89.349 114.171,89.129 114.606,88.996 114.870 C 88.485 115.885,88.620 116.142,90.326 117.400 C 90.859 117.792,91.348 118.180,91.415 118.262 C 91.652 118.555,96.406 121.835,98.307 123.018 C 102.845 125.841,111.929 130.511,113.793 130.979 C 114.429 131.138,114.451 131.114,114.290 130.446 C 114.197 130.061,114.031 129.311,113.920 128.779 C 113.809 128.247,113.506 126.995,113.246 125.998 C 112.987 125.000,112.640 123.531,112.476 122.733 C 112.311 121.935,112.085 120.901,111.972 120.435 C 111.644 119.078,111.200 117.015,110.982 115.840 C 110.456 112.999,110.254 111.959,109.901 110.278 C 109.540 108.558,109.356 107.509,108.850 104.293 C 108.346 101.082,108.052 99.473,107.841 98.774 C 107.718 98.365,107.618 97.365,107.618 96.551 C 107.618 95.737,107.509 95.004,107.376 94.921 C 107.243 94.839,107.134 94.249,107.134 93.610 C 107.134 92.971,107.019 91.862,106.878 91.145 C 106.168 87.543,105.734 78.576,106.147 76.063 C 106.581 73.427,107.157 70.780,107.399 70.318 C 107.519 70.087,107.618 69.677,107.618 69.407 C 107.618 68.916,107.674 68.767,108.423 67.272 C 108.645 66.829,108.827 66.332,108.827 66.168 C 108.827 65.886,109.757 63.757,110.300 62.795 C 110.537 62.376,110.061 61.702,109.509 61.676 C 109.419 61.672,109.202 61.533,109.026 61.366 C 108.175 60.561,106.167 59.953,106.167 60.501 " stroke="none" fill="#5cd39b" fill-rule="evenodd"></path><path id="path2" d="M58.004 28.302 C 52.300 29.256,48.624 34.691,48.889 41.778 C 48.935 43.009,48.935 44.015,48.889 44.015 C 48.844 44.015,48.084 43.292,47.200 42.408 C 41.646 36.854,36.677 35.871,31.738 39.349 C 29.654 40.817,27.086 44.492,27.086 46.006 C 27.086 46.188,26.987 46.440,26.865 46.566 C 26.417 47.032,26.155 51.373,26.456 53.325 C 26.711 54.973,27.867 57.829,28.953 59.492 C 33.185 65.972,40.874 71.489,53.567 77.155 C 57.265 78.806,64.841 81.244,66.304 81.255 C 67.048 81.260,69.038 77.990,70.644 74.123 C 71.993 70.876,73.406 66.378,73.987 63.482 C 74.147 62.684,74.385 61.618,74.516 61.114 C 75.303 58.078,75.727 48.676,75.216 45.586 C 73.090 32.711,67.172 26.768,58.004 28.302 M115.432 39.852 C 115.065 40.085,113.906 41.785,113.906 42.091 C 113.906 42.218,113.797 42.322,113.664 42.322 C 113.531 42.322,113.422 42.438,113.422 42.580 C 113.422 42.722,113.150 43.194,112.817 43.630 C 112.485 44.066,112.213 44.492,112.213 44.577 C 112.213 44.661,111.832 45.326,111.366 46.054 C 110.901 46.782,110.520 47.454,110.520 47.547 C 110.520 47.641,110.273 48.054,109.971 48.466 C 109.669 48.877,109.270 49.513,109.084 49.879 C 108.898 50.245,108.655 50.544,108.544 50.544 C 108.434 50.544,108.343 50.762,108.343 51.028 C 108.343 51.294,108.240 51.511,108.113 51.511 C 107.986 51.511,107.693 51.920,107.462 52.418 C 107.231 52.917,106.790 53.662,106.483 54.074 C 106.176 54.485,105.925 54.948,105.925 55.101 C 105.925 55.255,105.836 55.381,105.728 55.381 C 105.620 55.381,105.347 55.735,105.122 56.167 C 104.896 56.599,104.440 57.388,104.108 57.920 C 103.776 58.452,103.272 59.323,102.987 59.855 C 102.703 60.387,102.078 61.427,101.598 62.167 C 101.118 62.906,100.456 64.022,100.126 64.645 C 99.796 65.269,99.456 65.780,99.369 65.780 C 99.283 65.780,99.069 66.134,98.894 66.566 C 98.719 66.998,98.503 67.406,98.414 67.473 C 98.325 67.539,97.883 68.229,97.433 69.006 C 95.977 71.518,95.716 71.945,95.559 72.068 C 95.402 72.191,94.676 73.456,93.901 74.956 C 93.664 75.415,93.226 76.056,92.926 76.382 C 92.627 76.708,92.382 77.113,92.382 77.282 C 92.382 77.451,92.300 77.626,92.201 77.670 C 92.006 77.757,90.951 79.328,90.234 80.599 C 89.390 82.094,87.200 85.733,87.071 85.852 C 86.894 86.016,86.371 86.858,86.168 87.304 C 86.077 87.503,85.643 88.232,85.202 88.924 C 84.762 89.616,84.401 90.261,84.401 90.356 C 84.401 90.452,84.234 90.715,84.029 90.942 C 83.824 91.168,83.362 91.901,83.001 92.571 C 81.955 94.515,80.238 97.295,79.779 97.788 C 79.547 98.037,79.213 98.528,79.037 98.879 C 78.450 100.047,75.873 104.243,75.662 104.374 C 75.547 104.445,75.453 104.705,75.453 104.952 C 75.453 105.199,75.356 105.437,75.238 105.482 C 75.057 105.549,73.327 108.324,70.157 113.627 C 69.811 114.206,69.356 114.968,69.145 115.320 C 68.645 116.158,67.652 117.919,67.081 118.984 C 66.831 119.450,66.545 119.867,66.445 119.911 C 66.345 119.956,66.264 120.133,66.264 120.305 C 66.264 120.477,66.097 120.756,65.893 120.926 C 65.689 121.095,65.561 121.349,65.608 121.491 C 65.655 121.632,65.441 121.982,65.132 122.268 C 64.823 122.554,64.571 122.966,64.571 123.184 C 64.571 123.401,64.481 123.579,64.372 123.579 C 64.181 123.579,62.787 125.845,61.349 128.490 C 60.974 129.181,60.512 129.918,60.322 130.128 C 60.131 130.338,59.976 130.587,59.976 130.682 C 59.976 130.777,59.861 130.986,59.721 131.147 C 59.581 131.307,58.952 132.310,58.322 133.374 C 57.693 134.438,56.834 135.838,56.412 136.486 C 55.647 137.662,55.628 137.812,55.994 139.676 C 56.132 140.374,58.079 141.317,58.978 141.119 C 59.899 140.917,60.617 140.101,62.282 137.364 C 66.444 130.521,68.198 127.609,68.198 127.543 C 68.198 127.502,68.960 126.263,69.891 124.788 C 70.822 123.314,71.584 122.060,71.584 122.002 C 71.584 121.943,71.965 121.300,72.430 120.573 C 72.896 119.845,73.277 119.194,73.277 119.127 C 73.277 119.060,74.039 117.798,74.970 116.324 C 75.901 114.850,76.663 113.588,76.663 113.521 C 76.663 113.454,77.062 112.778,77.550 112.020 C 78.038 111.261,79.564 108.754,80.942 106.448 C 82.319 104.141,84.245 100.986,85.221 99.434 C 86.196 97.883,87.906 95.091,89.019 93.229 C 90.132 91.366,91.126 89.807,91.228 89.762 C 91.331 89.718,91.415 89.584,91.415 89.465 C 91.415 89.345,91.796 88.652,92.261 87.924 C 92.727 87.197,93.108 86.546,93.108 86.479 C 93.108 86.412,93.885 85.128,94.835 83.626 C 97.216 79.863,97.744 78.133,96.708 77.492 C 96.213 77.186,96.605 76.239,98.578 72.976 C 99.724 71.080,100.852 69.202,101.085 68.803 C 101.519 68.060,105.872 60.920,106.688 59.613 C 106.937 59.214,107.207 58.697,107.287 58.464 C 107.367 58.232,107.529 58.041,107.646 58.041 C 107.764 58.041,107.860 57.915,107.860 57.762 C 107.860 57.608,108.115 57.145,108.427 56.734 C 108.739 56.322,109.038 55.877,109.092 55.744 C 109.189 55.504,110.549 53.206,111.245 52.104 C 111.445 51.789,112.382 50.247,113.329 48.679 C 114.275 47.111,115.608 44.913,116.291 43.793 C 117.678 41.520,117.786 40.951,116.974 40.187 C 116.392 39.641,115.924 39.539,115.432 39.852 M344.256 66.519 C 336.964 67.222,329.188 67.468,321.894 67.226 L 318.395 67.110 318.198 68.077 C 318.090 68.609,317.898 71.439,317.772 74.365 C 317.429 82.256,317.124 88.099,316.665 95.526 C 316.439 99.184,316.171 103.918,316.069 106.046 C 315.638 115.053,315.368 120.040,315.133 123.337 C 314.996 125.266,314.881 127.533,314.878 128.375 L 314.873 129.905 316.626 129.795 C 318.798 129.658,321.718 128.907,322.285 128.340 C 322.376 128.249,322.650 128.174,322.894 128.174 C 323.138 128.174,323.337 128.065,323.337 127.932 C 323.337 127.799,323.449 127.690,323.584 127.690 C 324.542 127.690,327.227 125.318,328.506 123.342 C 329.937 121.132,330.356 120.034,331.087 116.566 C 331.402 115.068,331.285 109.319,330.880 106.409 C 329.967 99.855,329.985 97.082,330.975 91.536 C 332.500 82.989,337.148 76.910,344.015 74.482 C 345.276 74.036,346.277 73.766,347.214 73.619 C 348.911 73.353,348.949 73.267,348.573 70.496 C 347.940 65.826,348.272 66.132,344.256 66.519 M348.629 84.370 C 348.557 84.486,348.165 84.648,347.757 84.729 C 342.654 85.750,340.512 92.587,341.384 105.079 C 341.822 111.359,341.718 117.902,341.139 120.445 C 339.124 129.294,334.471 135.032,326.481 138.526 C 323.792 139.701,319.020 140.734,316.203 140.749 C 314.023 140.761,314.109 140.580,313.963 145.458 C 313.837 149.647,313.822 149.746,313.272 149.997 C 312.520 150.340,312.254 151.308,312.166 154.030 L 312.092 156.306 314.962 156.248 C 316.540 156.216,319.587 156.082,321.733 155.950 C 323.879 155.818,327.757 155.617,330.351 155.503 C 343.574 154.921,346.659 154.764,349.214 154.542 C 350.744 154.409,353.350 154.299,355.006 154.297 C 356.661 154.294,358.919 154.162,360.024 154.002 L 362.031 153.712 362.031 152.953 C 362.031 152.535,361.869 151.659,361.671 151.006 C 361.473 150.353,361.310 149.533,361.309 149.183 C 361.306 148.495,360.964 148.106,360.242 147.970 C 359.550 147.840,359.351 146.807,357.938 136.034 C 357.667 133.972,356.736 127.466,356.588 126.602 C 356.520 126.203,356.349 125.060,356.209 124.063 C 356.069 123.065,355.868 121.651,355.763 120.919 C 355.658 120.187,355.440 118.555,355.278 117.291 C 355.116 116.028,354.883 114.600,354.759 114.119 C 354.636 113.638,354.534 112.734,354.534 112.108 C 354.534 111.483,354.439 110.789,354.322 110.565 C 354.205 110.340,354.045 109.309,353.967 108.272 C 353.888 107.234,353.746 106.261,353.652 106.108 C 353.558 105.956,353.391 105.036,353.282 104.064 C 352.957 101.170,352.654 98.933,352.241 96.372 C 352.027 95.042,351.758 93.192,351.644 92.261 C 351.291 89.388,350.942 86.999,350.677 85.638 C 350.537 84.922,350.423 84.296,350.423 84.248 C 350.423 84.058,348.751 84.172,348.629 84.370 M160.883 98.843 C 161.248 98.899,161.847 98.899,162.213 98.843 C 162.579 98.788,162.279 98.742,161.548 98.742 C 160.816 98.742,160.517 98.788,160.883 98.843 M224.048 101.149 L 223.337 101.935 224.123 101.224 C 224.556 100.834,224.909 100.480,224.909 100.438 C 224.909 100.252,224.710 100.416,224.048 101.149 M237.086 108.343 C 237.086 109.474,237.127 109.937,237.178 109.371 C 237.229 108.806,237.229 107.881,237.178 107.316 C 237.127 106.750,237.086 107.213,237.086 108.343 M223.458 114.949 C 223.458 114.990,223.812 115.344,224.244 115.735 L 225.030 116.445 224.320 115.659 C 223.658 114.926,223.458 114.762,223.458 114.949 M181.056 119.871 C 180.803 120.124,180.879 123.825,181.163 125.030 C 181.304 125.629,181.514 126.880,181.631 127.811 C 182.125 131.761,182.713 133.803,184.206 136.759 C 186.057 140.424,188.658 142.998,191.415 143.891 C 191.947 144.064,192.792 144.352,193.294 144.533 C 198.235 146.311,205.363 143.407,208.517 138.331 C 211.350 133.773,213.982 120.543,212.193 119.857 C 211.669 119.655,181.257 119.670,181.056 119.871 " stroke="none" fill="#c771a7" fill-rule="evenodd"></path><path id="path3" d="M26.388 48.650 C 26.373 48.872,26.298 49.253,26.221 49.497 C 26.089 49.916,26.096 49.917,26.358 49.509 C 26.510 49.272,26.586 48.891,26.526 48.662 C 26.427 48.288,26.414 48.287,26.388 48.650 M158.526 99.413 C 150.677 103.327,152.952 117.536,161.427 117.536 C 169.051 117.536,172.240 105.806,166.052 100.520 C 165.328 99.902,164.569 99.395,164.365 99.395 C 164.161 99.395,163.927 99.287,163.845 99.154 C 163.559 98.691,159.586 98.884,158.526 99.413 M227.207 99.250 C 225.017 100.095,222.794 102.258,222.262 104.058 C 222.096 104.620,221.808 105.436,221.621 105.873 C 221.003 107.319,221.464 111.750,222.322 112.608 C 222.415 112.701,222.491 112.970,222.491 113.207 C 222.491 113.893,225.083 116.511,226.326 117.080 C 233.385 120.310,239.869 110.914,235.890 103.221 C 235.032 101.562,232.522 99.395,231.458 99.395 C 231.197 99.395,230.917 99.287,230.834 99.154 C 230.635 98.831,228.119 98.897,227.207 99.250 " stroke="none" fill="#705c7f" fill-rule="evenodd"></path><path id="path4" d="M70.238 32.467 C 70.611 32.966,70.961 33.374,71.017 33.374 C 71.230 33.374,70.636 32.499,70.111 32.041 C 69.660 31.647,69.683 31.724,70.238 32.467 M71.467 34.167 C 71.700 34.537,71.952 34.779,72.027 34.705 C 72.101 34.630,71.910 34.328,71.602 34.032 L 71.042 33.495 71.467 34.167 M36.941 37.418 C 37.373 37.472,38.080 37.472,38.513 37.418 C 38.945 37.364,38.591 37.320,37.727 37.320 C 36.862 37.320,36.508 37.364,36.941 37.418 M246.070 37.524 C 245.538 37.651,244.178 37.855,243.047 37.977 C 239.480 38.361,235.489 39.064,234.809 39.428 C 234.569 39.556,234.046 39.661,233.646 39.661 C 233.246 39.661,232.851 39.770,232.769 39.903 C 232.687 40.036,232.389 40.145,232.107 40.145 C 231.583 40.145,231.432 40.187,228.295 41.192 C 227.297 41.511,225.992 41.920,225.393 42.100 C 224.794 42.280,224.033 42.566,223.700 42.736 C 223.368 42.905,222.905 43.045,222.672 43.046 C 222.440 43.046,222.249 43.156,222.249 43.289 C 222.249 43.422,222.039 43.531,221.781 43.531 C 221.524 43.531,220.626 43.815,219.786 44.161 C 218.946 44.508,218.041 44.875,217.775 44.977 C 217.509 45.078,216.638 45.459,215.840 45.823 C 215.042 46.187,214.172 46.573,213.906 46.681 C 213.375 46.897,210.241 48.347,208.359 49.247 C 207.702 49.562,206.989 49.819,206.775 49.819 C 206.560 49.819,206.281 49.911,206.155 50.023 C 205.805 50.335,202.560 51.004,200.118 51.268 C 196.975 51.607,190.229 50.716,187.304 49.575 C 187.037 49.471,186.276 49.203,185.611 48.979 C 184.946 48.755,184.184 48.480,183.918 48.368 C 183.652 48.256,182.618 47.877,181.620 47.526 C 180.623 47.174,179.618 46.784,179.387 46.660 C 179.156 46.535,178.769 46.433,178.528 46.433 C 178.287 46.433,177.986 46.336,177.860 46.217 C 177.733 46.097,176.215 45.542,174.486 44.982 C 172.757 44.422,171.153 43.867,170.922 43.748 C 170.691 43.628,170.282 43.531,170.012 43.531 C 169.742 43.531,169.333 43.434,169.102 43.315 C 168.590 43.053,166.492 42.467,164.692 42.084 C 163.960 41.928,163.035 41.708,162.636 41.595 C 161.933 41.396,159.377 40.969,155.381 40.383 C 153.076 40.045,142.107 40.187,139.903 40.583 C 136.463 41.201,132.483 42.391,129.867 43.583 C 127.396 44.709,127.082 44.869,127.005 45.042 C 126.961 45.142,126.823 45.224,126.698 45.224 C 126.574 45.224,126.041 45.496,125.514 45.828 C 124.431 46.512,123.909 46.579,123.356 46.106 C 123.146 45.926,122.485 45.519,121.886 45.201 C 121.288 44.884,120.461 44.378,120.050 44.077 C 119.638 43.777,119.176 43.531,119.022 43.531 C 118.868 43.531,118.742 43.429,118.742 43.305 C 118.742 43.181,118.518 43.008,118.243 42.921 C 117.968 42.834,117.669 42.560,117.577 42.313 C 117.438 41.936,117.322 42.029,116.869 42.878 C 116.448 43.669,116.427 43.776,116.776 43.364 C 117.027 43.068,117.319 42.925,117.439 43.040 C 117.761 43.346,119.287 44.242,119.770 44.409 C 120.003 44.489,120.193 44.651,120.193 44.768 C 120.193 44.886,120.300 44.982,120.431 44.982 C 120.561 44.982,121.241 45.339,121.942 45.775 C 123.960 47.031,124.556 47.291,124.744 46.998 C 125.117 46.415,127.999 44.804,130.713 43.662 C 131.112 43.494,131.765 43.219,132.164 43.050 C 132.563 42.881,133.271 42.642,133.736 42.519 C 134.202 42.395,134.964 42.185,135.429 42.052 C 142.474 40.036,154.178 39.941,161.548 41.842 C 162.013 41.962,162.721 42.112,163.120 42.176 C 164.128 42.337,165.525 42.675,167.231 43.169 C 168.029 43.401,169.037 43.643,169.470 43.708 C 169.904 43.773,170.318 43.923,170.391 44.041 C 170.464 44.160,170.746 44.256,171.018 44.256 C 171.289 44.256,171.854 44.403,172.273 44.582 C 172.692 44.761,173.470 45.040,174.002 45.201 C 174.534 45.363,175.351 45.644,175.816 45.826 C 177.137 46.343,182.222 48.249,184.814 49.200 C 186.105 49.673,187.377 50.060,187.641 50.060 C 187.905 50.060,188.182 50.158,188.255 50.277 C 188.329 50.396,188.798 50.550,189.297 50.619 C 189.797 50.688,190.695 50.855,191.294 50.990 C 198.492 52.614,203.624 51.928,211.366 48.307 C 214.683 46.756,215.940 46.191,216.073 46.191 C 216.137 46.191,216.764 45.931,217.466 45.614 C 218.576 45.111,221.108 44.090,222.612 43.539 C 239.224 37.445,253.673 36.181,264.329 39.890 C 266.278 40.569,269.289 41.976,270.249 42.657 C 270.645 42.938,271.147 43.277,271.363 43.410 C 272.806 44.296,273.863 45.149,275.454 46.709 C 277.747 48.958,279.173 50.819,281.080 54.051 C 282.165 55.889,283.715 59.426,284.537 61.937 C 285.033 63.452,285.524 64.909,285.629 65.175 C 286.271 66.805,286.606 72.016,286.624 80.653 C 286.645 90.360,285.843 105.408,285.000 111.125 C 284.921 111.657,284.754 113.126,284.627 114.389 C 284.064 120.022,282.837 129.053,282.218 132.122 C 282.089 132.764,281.983 133.840,281.983 134.512 L 281.983 135.734 283.132 135.578 C 283.764 135.492,285.695 135.314,287.424 135.183 C 289.154 135.051,290.949 134.885,291.415 134.813 C 291.880 134.741,293.349 134.518,294.680 134.318 C 300.062 133.508,304.361 132.521,308.827 131.071 L 310.883 130.404 311.011 127.777 C 311.177 124.369,311.973 122.167,313.749 120.201 C 314.981 118.838,315.097 119.044,315.003 122.435 L 314.922 125.393 315.129 122.854 C 315.459 118.796,315.888 110.217,315.951 106.409 L 316.008 102.902 315.821 105.925 C 315.718 107.588,315.533 111.016,315.410 113.543 L 315.185 118.138 313.876 119.468 C 312.654 120.710,311.245 123.060,311.245 123.857 C 311.245 124.050,311.141 124.313,311.012 124.441 C 310.884 124.569,310.748 125.858,310.710 127.305 C 310.656 129.356,310.561 129.975,310.278 130.111 C 309.459 130.506,307.175 131.221,305.925 131.474 C 305.593 131.541,305.103 131.685,304.837 131.793 C 304.571 131.902,303.482 132.180,302.418 132.411 C 301.354 132.642,300.266 132.920,300.000 133.029 C 299.734 133.138,299.027 133.274,298.428 133.330 C 297.830 133.387,296.252 133.617,294.921 133.841 C 291.141 134.479,288.647 134.745,285.276 134.870 L 282.161 134.985 282.324 134.300 C 282.486 133.619,282.717 132.093,283.173 128.678 C 283.305 127.692,283.482 126.712,283.566 126.501 C 283.708 126.144,283.874 124.851,284.391 120.073 C 284.506 119.008,284.783 116.723,285.007 114.994 C 285.479 111.344,285.767 108.130,286.049 103.372 C 286.160 101.502,286.327 99.847,286.422 99.695 C 286.516 99.542,286.700 96.556,286.830 93.058 C 286.961 89.561,287.137 85.401,287.221 83.814 C 287.383 80.774,286.915 69.243,286.563 67.594 C 286.450 67.062,286.290 66.300,286.207 65.901 C 286.125 65.502,285.965 64.958,285.852 64.692 C 285.740 64.426,285.598 63.936,285.537 63.603 C 285.330 62.464,284.160 59.316,283.160 57.210 C 282.912 56.686,282.709 56.164,282.709 56.049 C 282.709 55.935,282.353 55.275,281.919 54.583 C 281.485 53.891,280.913 52.910,280.649 52.402 C 280.385 51.894,280.006 51.296,279.807 51.072 C 279.607 50.848,279.128 50.229,278.742 49.698 C 276.054 45.994,270.001 41.454,265.659 39.885 C 265.393 39.789,264.831 39.581,264.410 39.423 C 260.075 37.797,249.496 36.702,246.070 37.524 M75.018 44.619 C 75.018 44.885,75.105 45.375,75.212 45.707 C 75.365 46.186,75.405 46.211,75.405 45.828 C 75.405 45.562,75.318 45.073,75.212 44.740 C 75.058 44.261,75.018 44.236,75.018 44.619 M111.328 51.836 C 111.240 51.990,111.257 52.035,111.366 51.937 C 111.475 51.838,111.700 51.871,111.867 52.009 C 112.050 52.161,112.225 52.171,112.309 52.034 C 112.386 51.910,112.233 51.752,111.969 51.683 C 111.704 51.613,111.416 51.683,111.328 51.836 M110.656 53.014 C 110.317 53.498,110.317 53.570,110.661 53.762 C 111.139 54.030,111.472 53.736,111.012 53.451 C 110.731 53.277,110.726 53.176,110.988 52.860 C 111.162 52.650,111.243 52.479,111.168 52.479 C 111.093 52.479,110.862 52.720,110.656 53.014 M75.080 57.184 C 74.987 57.801,74.971 58.365,75.043 58.437 C 75.116 58.510,75.251 58.064,75.344 57.448 C 75.436 56.831,75.452 56.267,75.380 56.194 C 75.307 56.121,75.172 56.567,75.080 57.184 M107.743 58.035 C 107.547 58.351,108.104 58.619,108.381 58.342 C 108.536 58.188,108.489 58.056,108.246 57.963 C 108.042 57.885,107.816 57.917,107.743 58.035 M330.351 58.029 C 330.151 58.139,329.573 58.432,329.066 58.680 C 327.515 59.436,327.371 59.734,327.170 62.588 C 327.071 64.011,326.898 65.556,326.787 66.022 L 326.584 66.868 324.538 66.991 L 322.491 67.113 325.626 67.325 C 327.351 67.442,329.908 67.463,331.309 67.372 C 332.711 67.282,335.599 67.114,337.727 67.000 C 339.855 66.886,342.947 66.669,344.598 66.519 C 348.084 66.200,347.973 66.145,348.256 68.350 C 348.373 69.264,348.566 70.702,348.684 71.545 C 348.855 72.772,348.831 73.104,348.565 73.206 C 348.297 73.310,348.308 73.390,348.626 73.622 C 349.355 74.155,349.811 78.751,349.154 78.942 C 346.833 79.618,345.888 79.914,345.586 80.059 C 345.387 80.155,344.897 80.380,344.498 80.560 C 342.697 81.369,339.541 84.003,339.541 84.697 C 339.541 84.818,339.288 85.264,338.979 85.687 C 338.670 86.111,338.115 87.219,337.746 88.150 C 337.377 89.081,336.983 90.060,336.869 90.326 C 336.299 91.667,335.887 107.996,336.399 108.953 C 336.930 109.944,336.374 119.365,335.712 120.601 C 335.557 120.891,335.429 121.402,335.429 121.735 C 335.429 122.069,335.320 122.409,335.187 122.491 C 335.054 122.573,334.946 122.831,334.946 123.065 C 334.946 123.517,333.800 126.037,333.503 126.239 C 333.405 126.306,333.282 126.481,333.229 126.629 C 332.208 129.464,324.687 134.684,321.598 134.700 C 321.240 134.702,320.890 134.797,320.819 134.911 C 320.749 135.026,320.062 135.190,319.293 135.276 C 316.484 135.592,314.389 136.013,314.389 136.264 C 314.389 136.741,309.192 139.450,305.320 140.992 C 305.054 141.097,304.456 141.346,303.990 141.544 C 303.525 141.741,302.709 142.047,302.177 142.222 C 301.644 142.398,301.106 142.628,300.979 142.734 C 300.853 142.840,300.552 142.926,300.311 142.926 C 300.070 142.926,299.684 143.025,299.453 143.147 C 298.952 143.409,297.276 143.962,295.768 144.361 C 295.169 144.519,294.353 144.765,293.954 144.906 C 293.555 145.048,292.874 145.216,292.440 145.281 C 292.007 145.345,291.592 145.495,291.519 145.613 C 291.446 145.731,291.010 145.828,290.551 145.828 C 290.091 145.828,289.526 145.928,289.295 146.050 C 289.064 146.172,287.896 146.452,286.699 146.673 C 285.502 146.894,284.033 147.173,283.434 147.294 C 282.836 147.415,281.821 147.577,281.180 147.656 C 279.682 147.838,279.081 148.424,279.081 149.701 C 279.081 150.235,278.984 150.861,278.866 151.092 C 278.622 151.568,278.110 153.935,277.938 155.381 C 277.874 155.913,277.725 156.452,277.605 156.578 C 277.486 156.704,277.388 157.041,277.388 157.325 C 277.388 157.610,277.165 158.704,276.892 159.756 C 276.620 160.808,276.302 162.104,276.187 162.636 C 276.072 163.168,275.579 165.127,275.092 166.989 C 274.605 168.851,274.114 170.756,274.000 171.221 C 273.452 173.477,272.630 176.302,272.479 176.453 C 272.386 176.546,272.307 176.849,272.304 177.126 C 272.302 177.403,272.030 178.392,271.701 179.323 C 271.372 180.254,271.102 181.208,271.101 181.442 C 271.101 181.677,271.005 182.058,270.888 182.289 C 270.771 182.520,270.489 183.307,270.263 184.039 C 270.036 184.770,269.765 185.586,269.662 185.852 C 269.558 186.119,269.179 187.261,268.819 188.392 C 268.459 189.522,268.072 190.665,267.959 190.931 C 267.846 191.197,267.464 192.231,267.110 193.229 C 266.756 194.226,266.377 195.260,266.268 195.526 C 266.158 195.792,265.825 196.663,265.526 197.461 C 265.228 198.259,264.850 199.238,264.687 199.637 C 264.523 200.036,263.978 201.397,263.474 202.660 C 261.859 206.714,256.774 217.228,256.106 217.896 C 255.996 218.006,255.457 218.953,254.796 220.193 C 252.194 225.086,244.810 226.921,239.541 223.985 C 237.979 223.115,236.889 222.447,236.759 222.282 C 236.693 222.197,236.149 221.732,235.550 221.249 C 234.094 220.072,232.532 218.506,231.091 216.779 C 230.438 215.997,229.783 215.248,229.635 215.115 C 229.270 214.786,226.697 211.171,225.246 208.948 C 224.595 207.950,223.981 207.098,223.881 207.054 C 223.782 207.009,223.700 206.868,223.700 206.740 C 223.700 206.611,223.337 205.939,222.894 205.246 C 222.451 204.554,221.811 203.498,221.473 202.900 C 221.135 202.303,220.480 201.153,220.018 200.344 C 219.078 198.699,214.541 189.558,213.185 186.578 C 212.700 185.514,212.212 184.470,212.098 184.257 C 211.659 183.434,209.606 178.293,209.258 177.146 C 203.948 159.637,194.100 158.657,187.401 174.970 C 187.143 175.599,186.225 178.391,185.970 179.323 C 185.450 181.227,184.331 185.764,184.062 187.062 C 183.896 187.860,183.669 188.894,183.556 189.359 C 183.444 189.825,183.220 190.804,183.060 191.536 C 182.783 192.796,182.665 193.399,182.138 196.252 C 182.015 196.917,181.730 198.222,181.506 199.154 C 181.131 200.707,180.957 201.477,180.524 203.507 C 180.439 203.906,180.229 204.722,180.057 205.320 C 179.885 205.919,179.608 206.898,179.441 207.497 C 175.724 220.809,169.326 227.003,160.764 225.580 C 158.509 225.205,155.630 224.075,155.003 223.319 C 154.846 223.130,154.578 222.975,154.409 222.975 C 154.009 222.975,149.775 218.774,148.505 217.119 C 144.399 211.765,140.796 205.623,137.116 197.703 C 134.728 192.563,134.462 191.979,134.462 191.878 C 134.462 191.820,134.232 191.256,133.950 190.626 C 133.669 189.996,133.280 189.099,133.087 188.634 C 132.894 188.168,132.635 187.542,132.511 187.243 C 132.263 186.646,132.071 186.158,131.439 184.522 C 130.956 183.273,130.617 182.432,130.319 181.741 C 129.963 180.919,128.676 177.332,127.210 173.081 C 126.438 170.845,125.741 168.950,125.661 168.869 C 125.580 168.788,125.514 168.475,125.514 168.172 C 125.514 167.870,125.405 167.555,125.272 167.473 C 125.139 167.391,125.030 167.116,125.030 166.862 C 125.030 166.608,124.879 166.044,124.693 165.607 C 124.508 165.170,124.059 163.833,123.696 162.636 C 123.333 161.439,122.940 160.271,122.824 160.040 C 122.707 159.809,122.612 159.399,122.612 159.129 C 122.612 158.860,122.516 158.450,122.399 158.219 C 122.190 157.805,121.752 156.424,121.154 154.293 C 120.840 153.171,120.630 152.478,119.725 149.577 L 119.197 147.883 116.370 146.471 C 105.228 140.902,95.443 133.986,87.908 126.353 C 86.042 124.463,83.379 121.540,82.867 120.821 C 82.571 120.406,82.429 120.387,81.428 120.639 C 78.838 121.292,73.911 120.736,73.284 119.721 C 73.166 119.530,72.918 119.748,72.559 120.356 C 72.083 121.166,72.073 121.229,72.483 120.859 C 73.046 120.351,73.671 120.332,74.486 120.798 C 74.819 120.988,75.494 121.148,75.986 121.152 C 76.479 121.157,77.155 121.285,77.489 121.438 C 78.082 121.708,78.218 121.694,81.648 121.026 C 82.208 120.917,82.594 121.215,84.015 122.854 C 85.875 124.998,88.682 127.842,90.696 129.625 C 91.823 130.623,92.799 131.497,92.866 131.568 C 93.147 131.868,96.213 134.381,96.839 134.825 C 97.214 135.091,97.807 135.537,98.156 135.816 C 99.778 137.112,104.948 140.605,106.958 141.762 C 108.185 142.469,109.407 143.179,109.674 143.340 C 109.940 143.501,110.320 143.711,110.520 143.806 C 110.719 143.901,110.937 144.042,111.004 144.118 C 111.202 144.346,115.388 146.511,118.462 147.976 C 118.752 148.114,119.524 150.213,120.430 153.325 C 120.604 153.924,120.881 154.849,121.045 155.381 C 121.209 155.913,121.588 157.164,121.886 158.162 C 122.185 159.160,122.688 160.756,123.004 161.709 C 123.321 162.663,123.579 163.615,123.579 163.825 C 123.579 164.036,123.688 164.208,123.821 164.208 C 123.954 164.208,124.063 164.528,124.063 164.919 C 124.063 165.310,124.172 165.698,124.305 165.780 C 124.438 165.862,124.547 166.168,124.548 166.459 C 124.549 166.751,124.712 167.301,124.911 167.682 C 125.109 168.063,125.272 168.527,125.272 168.713 C 125.272 168.899,125.370 169.240,125.490 169.471 C 125.610 169.702,125.904 170.544,126.144 171.342 C 126.384 172.140,126.667 172.897,126.773 173.023 C 126.878 173.149,126.965 173.481,126.965 173.761 C 126.965 174.040,127.052 174.372,127.157 174.498 C 127.263 174.625,127.493 175.163,127.669 175.695 C 127.844 176.227,128.122 176.989,128.286 177.388 C 128.450 177.787,128.781 178.712,129.021 179.444 C 129.451 180.755,130.179 182.551,130.612 183.370 C 130.734 183.601,130.834 183.901,130.834 184.037 C 130.834 184.172,131.106 184.847,131.439 185.536 C 131.771 186.225,132.044 186.934,132.044 187.110 C 132.044 187.287,132.140 187.620,132.259 187.851 C 132.489 188.300,133.048 189.581,133.445 190.568 C 133.579 190.901,133.927 191.717,134.219 192.382 C 134.512 193.047,134.914 193.972,135.113 194.438 C 135.899 196.272,138.403 201.523,138.573 201.693 C 138.640 201.759,139.159 202.739,139.728 203.869 C 140.985 206.369,142.041 208.285,142.823 209.487 C 143.146 209.983,143.410 210.460,143.410 210.546 C 143.410 210.633,143.791 211.234,144.256 211.882 C 144.722 212.530,145.103 213.119,145.103 213.191 C 145.103 213.263,145.212 213.453,145.346 213.614 C 146.359 214.828,148.005 217.021,148.005 217.157 C 148.005 217.637,153.417 222.822,154.929 223.791 C 160.312 227.239,167.494 226.861,171.705 222.908 C 173.050 221.645,174.849 219.555,174.849 219.254 C 174.849 219.131,175.101 218.693,175.408 218.282 C 175.970 217.530,177.751 213.965,177.751 213.591 C 177.751 213.482,177.964 212.951,178.225 212.411 C 178.878 211.058,179.436 209.408,179.440 208.815 C 179.442 208.542,179.538 208.216,179.652 208.089 C 179.953 207.758,180.497 205.666,181.128 202.418 C 181.406 200.989,182.315 197.177,182.603 196.234 C 182.727 195.826,182.830 195.244,182.830 194.941 C 182.830 194.639,182.981 193.830,183.165 193.145 C 183.350 192.459,183.630 191.245,183.788 190.447 C 183.946 189.649,184.166 188.615,184.277 188.150 C 184.389 187.684,184.773 185.998,185.132 184.401 C 185.491 182.805,185.868 181.227,185.970 180.895 C 186.072 180.562,186.450 179.311,186.812 178.114 C 187.173 176.917,187.567 175.748,187.688 175.517 C 187.809 175.286,187.908 174.995,187.908 174.869 C 187.908 174.371,189.396 171.468,190.587 169.644 C 195.353 162.337,200.661 161.700,204.654 167.956 C 205.078 168.622,205.483 169.220,205.554 169.287 C 205.804 169.521,207.013 172.079,207.013 172.374 C 207.013 172.538,207.122 172.672,207.255 172.672 C 207.388 172.672,207.497 172.924,207.497 173.231 C 207.497 173.539,207.724 174.260,208.001 174.833 C 208.278 175.407,208.564 176.246,208.638 176.698 C 208.711 177.151,208.866 177.579,208.981 177.650 C 209.096 177.721,209.193 178.018,209.197 178.309 C 209.202 178.601,209.473 179.383,209.800 180.048 C 210.127 180.713,210.396 181.394,210.397 181.560 C 210.398 181.726,210.508 181.862,210.641 181.862 C 210.774 181.862,210.883 182.050,210.883 182.279 C 210.883 182.508,211.254 183.460,211.709 184.395 C 212.163 185.330,212.728 186.557,212.965 187.122 C 213.201 187.687,213.482 188.150,213.589 188.150 C 213.697 188.150,213.785 188.278,213.785 188.435 C 213.785 189.036,219.790 201.223,220.318 201.693 C 220.392 201.759,220.776 202.439,221.170 203.204 C 221.564 203.968,221.968 204.594,222.068 204.594 C 222.167 204.595,222.249 204.697,222.249 204.822 C 222.249 205.297,226.817 212.314,227.741 213.258 C 227.913 213.434,228.056 213.651,228.059 213.742 C 228.062 213.832,228.416 214.296,228.845 214.774 C 229.274 215.252,230.006 216.122,230.471 216.709 C 234.753 222.105,241.125 226.119,245.409 226.119 C 248.373 226.119,254.897 222.381,254.897 220.684 C 254.897 220.480,254.981 220.314,255.084 220.314 C 255.187 220.314,255.482 219.906,255.740 219.407 C 255.999 218.909,256.547 217.956,256.959 217.291 C 257.915 215.746,261.600 208.207,262.632 205.683 C 262.741 205.417,263.069 204.655,263.361 203.990 C 264.105 202.297,264.588 201.169,264.811 200.605 C 264.916 200.339,265.286 199.434,265.633 198.593 C 265.980 197.753,266.264 196.909,266.264 196.716 C 266.264 196.523,266.363 196.177,266.484 195.946 C 267.006 194.949,267.956 192.436,267.956 192.052 C 267.956 191.821,268.046 191.529,268.156 191.403 C 268.265 191.276,268.559 190.520,268.810 189.722 C 269.060 188.924,269.351 188.167,269.457 188.041 C 269.563 187.915,269.649 187.528,269.649 187.183 C 269.649 186.837,269.744 186.450,269.860 186.324 C 269.976 186.198,270.259 185.441,270.489 184.643 C 270.719 183.845,270.997 182.975,271.106 182.709 C 271.216 182.443,271.359 181.953,271.425 181.620 C 271.491 181.288,271.729 180.526,271.955 179.927 C 272.180 179.329,272.567 178.077,272.813 177.146 C 273.059 176.215,273.439 174.855,273.656 174.123 C 273.873 173.392,274.102 172.521,274.165 172.189 C 274.229 171.856,274.373 171.366,274.486 171.100 C 274.599 170.834,274.746 170.345,274.812 170.012 C 274.878 169.680,275.116 168.700,275.341 167.836 C 275.773 166.176,276.068 164.952,276.419 163.362 C 276.536 162.830,276.812 161.741,277.032 160.943 C 277.252 160.145,277.526 159.002,277.640 158.404 C 277.754 157.805,277.955 156.745,278.087 156.047 C 278.218 155.349,278.397 154.662,278.484 154.521 C 278.572 154.381,278.746 153.646,278.871 152.888 C 279.693 147.939,279.341 148.367,283.071 147.777 C 283.869 147.651,285.774 147.265,287.304 146.919 C 288.833 146.573,290.520 146.194,291.052 146.077 C 293.149 145.616,294.206 145.307,294.426 145.089 C 294.552 144.964,294.962 144.861,295.336 144.861 C 295.710 144.861,296.205 144.764,296.436 144.645 C 296.667 144.526,297.836 144.127,299.033 143.758 C 300.230 143.389,301.313 142.997,301.439 142.886 C 301.565 142.775,301.866 142.684,302.107 142.684 C 302.348 142.684,302.735 142.581,302.966 142.454 C 303.197 142.328,303.821 142.046,304.353 141.829 C 304.885 141.612,305.509 141.335,305.740 141.213 C 305.971 141.091,306.278 140.992,306.422 140.992 C 306.740 140.992,312.482 138.149,312.805 137.831 C 313.702 136.951,313.796 137.446,313.737 142.745 C 313.678 148.104,313.567 149.348,313.098 149.919 C 312.862 150.206,312.898 150.217,313.326 149.990 C 313.806 149.734,313.842 149.474,313.963 145.447 C 314.109 140.582,314.024 140.761,316.203 140.749 C 319.020 140.734,323.792 139.701,326.481 138.526 C 334.471 135.032,339.124 129.294,341.139 120.445 C 341.718 117.902,341.822 111.359,341.384 105.079 C 340.512 92.587,342.654 85.750,347.757 84.729 C 348.165 84.648,348.557 84.486,348.629 84.370 C 348.751 84.172,350.423 84.058,350.423 84.248 C 350.423 84.296,350.537 84.922,350.677 85.638 C 350.942 86.999,351.291 89.388,351.644 92.261 C 351.758 93.192,352.027 95.042,352.241 96.372 C 352.639 98.842,352.943 101.090,353.287 104.125 C 353.393 105.063,353.558 105.956,353.652 106.108 C 353.746 106.261,353.888 107.234,353.967 108.272 C 354.045 109.309,354.205 110.340,354.322 110.565 C 354.439 110.789,354.534 111.483,354.534 112.108 C 354.534 112.734,354.636 113.638,354.759 114.119 C 354.883 114.600,355.116 116.028,355.278 117.291 C 355.440 118.555,355.658 120.187,355.763 120.919 C 355.868 121.651,356.069 123.065,356.209 124.063 C 356.349 125.060,356.520 126.203,356.588 126.602 C 356.736 127.466,357.667 133.972,357.938 136.034 C 359.275 146.228,359.562 147.800,360.118 147.950 C 360.339 148.009,360.367 147.971,360.198 147.842 C 359.959 147.659,359.718 146.345,359.111 141.898 C 358.877 140.186,358.587 138.142,358.178 135.308 C 358.044 134.377,357.821 132.636,357.684 131.439 C 357.547 130.242,357.330 128.718,357.202 128.053 C 356.927 126.619,356.095 120.919,355.736 118.017 C 355.597 116.886,355.386 115.308,355.267 114.510 C 354.695 110.641,354.520 109.503,354.171 107.376 C 353.964 106.112,353.693 104.208,353.569 103.144 C 353.445 102.080,353.246 100.381,353.128 99.369 C 353.009 98.357,352.840 97.412,352.751 97.268 C 352.662 97.125,352.478 96.102,352.342 94.997 C 351.792 90.541,351.652 89.460,351.190 86.094 C 350.925 84.166,350.640 82.152,350.555 81.620 C 350.305 80.040,349.989 77.647,349.737 75.405 C 349.606 74.248,349.428 73.185,349.340 73.043 C 349.252 72.901,349.078 71.943,348.953 70.915 C 348.315 65.662,348.334 65.704,346.675 65.917 C 343.671 66.302,339.203 66.717,339.054 66.625 C 338.959 66.566,338.764 66.053,338.621 65.484 C 338.478 64.915,338.125 63.579,337.837 62.515 C 337.549 61.451,337.258 60.279,337.190 59.911 C 337.052 59.167,336.086 58.283,335.411 58.283 C 335.171 58.283,334.907 58.174,334.825 58.041 C 334.646 57.752,330.869 57.741,330.351 58.029 M335.453 59.033 C 336.265 59.441,336.880 60.526,336.880 61.553 C 336.880 62.000,336.978 62.426,337.097 62.499 C 337.216 62.573,337.373 63.042,337.446 63.541 C 337.696 65.257,337.909 66.143,338.138 66.431 C 338.389 66.747,334.230 66.932,329.895 66.798 L 327.626 66.728 327.782 64.501 C 328.060 60.530,328.183 60.084,329.187 59.405 C 330.532 58.495,333.975 58.291,335.453 59.033 M118.017 59.371 C 118.017 59.571,118.126 59.734,118.259 59.734 C 118.392 59.734,118.501 59.571,118.501 59.371 C 118.501 59.172,118.392 59.008,118.259 59.008 C 118.126 59.008,118.017 59.172,118.017 59.371 M106.584 59.719 C 106.502 60.035,106.763 60.249,107.651 60.593 C 108.298 60.844,108.827 61.127,108.827 61.222 C 108.827 61.317,109.018 61.459,109.250 61.538 C 110.625 62.005,110.594 62.624,109.063 65.353 C 108.933 65.584,108.827 65.929,108.827 66.120 C 108.827 66.310,108.645 66.829,108.423 67.272 C 107.674 68.767,107.618 68.916,107.618 69.407 C 107.618 69.677,107.519 70.087,107.399 70.318 C 107.157 70.780,106.581 73.427,106.147 76.063 C 105.734 78.576,106.168 87.543,106.878 91.145 C 107.019 91.862,107.134 92.971,107.134 93.610 C 107.134 94.249,107.243 94.839,107.376 94.921 C 107.509 95.004,107.618 95.737,107.618 96.551 C 107.618 97.365,107.718 98.365,107.841 98.774 C 108.052 99.473,108.346 101.082,108.850 104.293 C 109.356 107.509,109.540 108.558,109.901 110.278 C 110.254 111.959,110.456 112.999,110.982 115.840 C 111.200 117.015,111.644 119.078,111.972 120.435 C 112.085 120.901,112.311 121.935,112.476 122.733 C 112.640 123.531,112.987 125.000,113.246 125.998 C 113.506 126.995,113.809 128.247,113.920 128.779 C 114.031 129.311,114.197 130.061,114.290 130.446 C 114.451 131.114,114.429 131.138,113.793 130.979 C 111.929 130.511,102.845 125.841,98.307 123.018 C 96.406 121.835,91.652 118.555,91.415 118.262 C 91.348 118.180,90.859 117.792,90.326 117.400 C 88.598 116.126,88.478 115.885,89.034 114.809 C 89.647 113.624,89.741 113.363,90.084 111.909 C 91.029 107.903,89.667 103.795,86.361 100.677 C 84.702 99.111,84.751 99.682,86.423 101.398 C 90.054 105.124,90.897 110.252,88.604 114.669 C 87.881 116.062,88.036 116.272,91.913 119.150 C 95.215 121.601,98.729 123.879,101.935 125.644 C 102.201 125.791,103.017 126.242,103.748 126.647 C 107.018 128.455,112.984 131.318,113.484 131.318 C 113.663 131.318,113.930 131.439,114.078 131.587 C 114.833 132.342,114.975 131.146,114.383 129.021 C 114.272 128.622,113.897 127.044,113.549 125.514 C 113.201 123.984,112.816 122.297,112.693 121.765 C 112.339 120.235,111.314 115.242,110.756 112.334 C 110.476 110.871,110.128 109.184,109.983 108.585 C 109.839 107.987,109.625 106.898,109.507 106.167 C 109.390 105.435,109.199 104.238,109.082 103.507 C 108.964 102.775,108.745 101.314,108.594 100.260 C 108.443 99.205,108.249 98.229,108.164 98.091 C 108.078 97.952,107.916 96.965,107.804 95.896 C 107.693 94.828,107.511 93.083,107.401 92.019 C 107.291 90.955,107.081 89.160,106.934 88.029 C 106.385 83.812,106.127 79.000,106.387 77.872 C 106.526 77.273,106.641 76.371,106.645 75.866 C 106.653 74.492,107.495 70.986,108.514 68.077 C 109.281 65.890,109.353 65.718,110.306 63.805 L 111.108 62.194 110.512 61.697 C 110.184 61.424,109.828 61.197,109.722 61.193 C 109.616 61.189,108.891 60.761,108.111 60.243 C 106.895 59.436,106.678 59.361,106.584 59.719 M116.978 59.654 C 116.898 59.784,117.045 60.071,117.304 60.293 C 117.846 60.758,117.927 60.518,117.449 59.864 C 117.268 59.616,117.059 59.523,116.978 59.654 M74.382 61.323 C 74.293 61.678,74.267 62.014,74.324 62.071 C 74.381 62.128,74.501 61.885,74.590 61.530 C 74.679 61.176,74.705 60.839,74.648 60.782 C 74.591 60.725,74.471 60.969,74.382 61.323 M116.324 62.394 C 116.324 62.527,116.154 62.636,115.947 62.636 C 115.740 62.636,115.634 62.740,115.713 62.867 C 115.792 62.995,116.007 63.041,116.192 62.970 C 116.595 62.815,116.892 62.152,116.558 62.152 C 116.429 62.152,116.324 62.261,116.324 62.394 M318.077 66.777 C 317.884 66.975,317.785 67.742,317.803 68.912 L 317.832 70.738 318.106 68.924 L 318.380 67.110 320.314 66.973 C 321.555 66.885,321.859 66.819,321.161 66.789 C 320.562 66.763,319.692 66.680,319.226 66.605 C 318.693 66.519,318.268 66.583,318.077 66.777 M72.189 69.891 C 72.098 70.177,72.078 70.466,72.144 70.532 C 72.211 70.599,72.340 70.419,72.430 70.133 C 72.521 69.847,72.541 69.558,72.475 69.492 C 72.408 69.425,72.279 69.605,72.189 69.891 M317.529 73.398 C 317.481 74.861,317.413 76.439,317.378 76.904 C 317.342 77.370,317.269 79.927,317.214 82.588 C 317.116 87.340,317.118 87.361,317.314 83.797 C 317.658 77.507,317.817 72.707,317.714 71.705 C 317.659 71.173,317.576 71.935,317.529 73.398 M316.813 88.029 C 316.795 88.229,316.679 90.296,316.555 92.624 C 316.432 94.952,316.261 98.108,316.175 99.637 C 316.089 101.167,316.097 102.346,316.191 102.258 C 316.386 102.076,317.117 88.317,316.952 87.922 C 316.894 87.781,316.831 87.830,316.813 88.029 M330.653 93.712 C 330.656 94.244,330.706 94.433,330.764 94.133 C 330.821 93.832,330.819 93.396,330.759 93.165 C 330.698 92.934,330.651 93.180,330.653 93.712 M76.784 97.703 C 76.518 97.817,76.044 97.918,75.732 97.927 C 75.166 97.944,74.357 98.256,72.332 99.237 C 69.068 100.817,66.465 105.312,66.428 109.432 C 66.398 112.715,68.033 116.793,68.940 115.700 C 69.180 115.411,69.164 115.372,68.857 115.490 C 68.475 115.637,68.245 115.265,67.367 113.090 C 65.450 108.340,68.382 101.566,73.393 99.168 C 75.018 98.390,77.968 97.811,78.760 98.115 C 79.352 98.342,80.021 97.931,79.444 97.694 C 78.813 97.434,77.397 97.439,76.784 97.703 M330.190 99.154 C 330.190 100.151,330.233 100.559,330.285 100.060 C 330.337 99.562,330.337 98.745,330.285 98.247 C 330.233 97.748,330.190 98.156,330.190 99.154 M159.008 98.912 C 158.926 99.045,158.656 99.154,158.409 99.154 C 157.891 99.154,154.776 102.080,154.776 102.566 C 154.776 102.743,154.958 102.620,155.180 102.291 C 155.808 101.361,157.999 99.403,158.416 99.399 C 158.622 99.397,158.894 99.296,159.021 99.174 C 159.147 99.052,159.522 98.904,159.855 98.844 C 160.459 98.736,160.459 98.736,159.809 98.703 C 159.451 98.685,159.091 98.779,159.008 98.912 M163.724 99.070 C 164.323 99.278,164.969 99.572,165.161 99.724 C 165.426 99.933,165.468 99.931,165.338 99.713 C 165.092 99.303,163.741 98.668,163.143 98.681 C 162.856 98.688,163.108 98.857,163.724 99.070 M227.207 98.912 C 227.125 99.045,226.859 99.154,226.618 99.154 C 226.376 99.154,226.028 99.338,225.846 99.563 C 225.559 99.916,225.563 99.941,225.877 99.746 C 227.623 98.659,230.823 98.654,232.648 99.735 C 232.939 99.908,232.953 99.887,232.716 99.632 C 231.970 98.827,227.611 98.257,227.207 98.912 M166.723 101.096 C 169.405 104.088,170.273 108.736,168.742 111.910 C 168.598 112.209,168.538 112.512,168.609 112.583 C 168.736 112.710,168.953 112.201,169.495 110.503 C 170.480 107.416,168.817 102.079,166.323 100.326 C 165.662 99.861,165.725 99.983,166.723 101.096 M224.033 100.927 C 222.595 102.533,222.249 103.001,222.249 103.340 C 222.249 103.512,222.120 103.781,221.963 103.938 C 221.806 104.095,221.734 104.281,221.803 104.351 C 221.873 104.420,222.192 103.959,222.513 103.327 C 222.833 102.694,223.607 101.660,224.233 101.028 C 224.858 100.396,225.280 99.879,225.170 99.879 C 225.061 99.879,224.549 100.350,224.033 100.927 M234.296 101.043 C 235.464 102.242,236.223 103.547,236.856 105.441 C 237.087 106.133,237.224 106.330,237.232 105.982 C 237.238 105.681,237.148 105.246,237.033 105.015 C 236.917 104.784,236.589 104.071,236.303 103.432 C 235.814 102.335,233.776 99.879,233.356 99.879 C 233.250 99.879,233.673 100.403,234.296 101.043 M154.056 103.981 C 153.787 104.507,153.578 105.242,153.592 105.613 L 153.617 106.288 153.798 105.562 C 153.897 105.163,154.152 104.429,154.365 103.930 C 154.875 102.734,154.675 102.767,154.056 103.981 M330.658 104.716 C 330.658 105.314,330.706 105.559,330.763 105.260 C 330.821 104.961,330.821 104.471,330.763 104.172 C 330.706 103.872,330.658 104.117,330.658 104.716 M221.290 105.906 C 220.883 106.887,221.038 110.866,221.499 111.294 C 221.783 111.558,221.803 111.531,221.628 111.125 C 221.290 110.339,221.215 106.502,221.526 105.920 C 221.679 105.634,221.756 105.351,221.697 105.292 C 221.637 105.233,221.454 105.509,221.290 105.906 M153.221 107.210 C 152.965 108.410,153.814 112.772,154.224 112.362 C 154.283 112.303,154.206 112.019,154.052 111.732 C 153.899 111.445,153.693 110.102,153.595 108.749 C 153.443 106.639,153.389 106.419,153.221 107.210 M236.775 111.396 C 234.966 117.551,228.910 119.682,224.251 115.802 L 223.337 115.041 224.305 115.996 C 228.012 119.654,234.093 118.236,236.322 113.191 C 236.589 112.587,236.916 111.861,237.049 111.580 C 237.182 111.298,237.253 110.876,237.206 110.641 C 237.159 110.403,236.970 110.735,236.775 111.396 M221.765 112.394 C 221.765 112.545,221.874 112.735,222.007 112.817 C 222.140 112.900,222.253 113.151,222.257 113.376 C 222.265 113.792,223.042 114.873,223.333 114.873 C 223.421 114.873,223.268 114.586,222.992 114.236 C 222.716 113.885,222.487 113.477,222.483 113.329 C 222.473 112.967,221.765 112.045,221.765 112.394 M154.300 112.720 C 154.235 113.947,158.842 118.143,159.516 117.469 C 159.587 117.398,159.253 117.210,158.773 117.052 C 157.850 116.747,155.018 114.298,155.018 113.805 C 155.018 113.513,154.315 112.450,154.300 112.720 M167.998 113.581 C 167.448 114.640,165.725 116.280,164.482 116.927 C 163.866 117.248,163.494 117.516,163.656 117.522 C 164.825 117.567,169.069 113.607,168.481 113.020 C 168.412 112.950,168.194 113.203,167.998 113.581 M160.641 117.709 C 161.140 117.762,161.956 117.762,162.455 117.709 C 162.953 117.657,162.545 117.615,161.548 117.615 C 160.550 117.615,160.142 117.657,160.641 117.709 M212.657 121.886 C 212.657 122.884,212.700 123.292,212.752 122.793 C 212.804 122.294,212.804 121.478,212.752 120.979 C 212.700 120.481,212.657 120.889,212.657 121.886 M180.912 124.809 C 180.921 125.130,181.027 125.611,181.148 125.877 C 181.301 126.214,181.322 126.067,181.220 125.393 C 181.049 124.270,180.887 123.964,180.912 124.809 M181.451 127.932 C 181.451 128.664,181.496 128.963,181.552 128.597 C 181.607 128.232,181.607 127.633,181.552 127.267 C 181.496 126.901,181.451 127.201,181.451 127.932 M314.706 128.537 C 314.707 129.335,314.753 129.632,314.806 129.198 C 314.860 128.763,314.859 128.110,314.804 127.747 C 314.749 127.383,314.705 127.739,314.706 128.537 M361.326 149.214 C 361.319 149.547,361.468 150.308,361.656 150.907 C 361.903 151.692,362.003 151.826,362.012 151.391 C 362.018 151.058,361.870 150.296,361.681 149.698 C 361.434 148.913,361.335 148.778,361.326 149.214 M362.053 152.864 L 362.031 153.733 360.399 153.965 L 358.767 154.198 360.536 154.224 C 362.513 154.253,362.685 154.116,362.310 152.811 L 362.075 151.995 362.053 152.864 M351.814 154.470 C 352.379 154.521,353.304 154.521,353.869 154.470 C 354.435 154.419,353.972 154.377,352.842 154.377 C 351.711 154.377,351.248 154.419,351.814 154.470 M347.037 154.786 C 346.658 154.913,347.019 154.937,348.005 154.851 C 348.869 154.774,349.622 154.672,349.678 154.623 C 349.876 154.449,347.630 154.587,347.037 154.786 M344.800 154.947 C 345.100 155.005,345.589 155.005,345.889 154.947 C 346.188 154.889,345.943 154.842,345.345 154.842 C 344.746 154.842,344.501 154.889,344.800 154.947 M335.550 155.265 C 334.752 155.356,335.895 155.377,338.089 155.312 C 340.284 155.247,342.125 155.154,342.181 155.106 C 342.347 154.961,337.113 155.087,335.550 155.265 M327.388 155.680 C 328.086 155.729,329.229 155.729,329.927 155.680 C 330.626 155.631,330.054 155.591,328.658 155.591 C 327.261 155.591,326.690 155.631,327.388 155.680 M320.139 156.163 C 320.708 156.214,321.579 156.213,322.074 156.161 C 322.569 156.109,322.104 156.068,321.040 156.068 C 319.976 156.069,319.571 156.112,320.139 156.163 M313.356 156.402 C 313.785 156.455,314.547 156.456,315.049 156.404 C 315.551 156.351,315.200 156.308,314.268 156.307 C 313.337 156.306,312.927 156.348,313.356 156.402 " stroke="none" fill="#99d8b9" fill-rule="evenodd"></path></g></svg>